<svg width="300" height="300" viewBox="0 0 300 300" fill="none" xmlns="http://www.w3.org/2000/svg">
<g clip-path="url(#clip0)">
<path d="M300 0H0V300H300V0Z" fill="#111111"/>
<path d="M136.75 49.1C129.987 49.1 123.501 51.7445 118.719 56.4516C113.937 61.1588 111.25 67.5431 111.25 74.2V174.6C111.25 181.257 113.937 187.641 118.719 192.348C123.501 197.056 129.987 199.7 136.75 199.7H213.25C220.013 199.7 226.499 197.056 231.281 192.348C236.063 187.641 238.75 181.257 238.75 174.6V104.496C238.749 97.8393 236.061 91.4561 231.278 86.75L200.5 56.4543C195.719 51.7468 189.234 49.1014 182.472 49.1H136.75Z" fill="white" fill-opacity="0.02"/>
<path d="M60.25 124.4C60.25 117.743 62.9366 111.359 67.7188 106.652C72.501 101.944 78.987 99.3 85.75 99.3V224.8H187.75C187.75 231.457 185.063 237.841 180.281 242.548C175.499 247.256 169.013 249.9 162.25 249.9H85.75C78.987 249.9 72.501 247.256 67.7188 242.548C62.9366 237.841 60.25 231.457 60.25 224.8V124.4Z" fill="white" fill-opacity="0.02"/>
<path d="M80.7363 101.454C86.9062 101.454 91.6392 102.798 94.9351 105.488C98.2573 108.177 99.9185 112.066 99.9185 117.155C99.9185 120.161 99.0352 122.864 97.2686 125.263C95.502 127.663 93.0103 129.403 89.7935 130.484C93.353 131.38 95.9106 132.989 97.4663 135.309C99.0483 137.603 99.8394 140.503 99.8394 144.01V149.271C99.8394 151.301 100.156 152.804 100.789 153.779C101.421 154.755 102.384 155.282 103.676 155.361L105.614 155.48V159H102.608C99.813 159 97.8618 158.051 96.7544 156.152C95.647 154.254 95.0933 151.934 95.0933 149.191V144.089C95.0933 140.609 93.9727 137.854 91.7314 135.823C89.5166 133.767 86.4185 132.699 82.437 132.62H67.9614V155.005L74.4082 155.559V159H56.8081V155.559L63.2549 155.005V105.488L56.8081 104.934V101.454H80.7363ZM67.9614 128.585H80.1826C85.377 128.585 89.1738 127.544 91.5732 125.461C93.9727 123.378 95.1724 120.596 95.1724 117.116C95.1724 113.424 93.9727 110.563 91.5732 108.533C89.1738 106.503 85.5615 105.488 80.7363 105.488H67.9614V128.585ZM131.045 159.831C125.666 159.831 121.21 157.866 117.677 153.938C114.144 149.982 112.377 144.959 112.377 138.869V136.693C112.377 130.576 114.13 125.5 117.637 121.466C121.17 117.432 125.429 115.415 130.412 115.415C135.659 115.415 139.786 117.076 142.792 120.398C145.797 123.721 147.3 128.15 147.3 133.688V137.722H117.083V138.869C117.083 143.667 118.362 147.702 120.92 150.971C123.504 154.214 126.879 155.836 131.045 155.836C133.972 155.836 136.477 155.427 138.56 154.61C140.643 153.792 142.422 152.619 143.899 151.09L145.916 154.333C144.308 156.021 142.277 157.365 139.825 158.367C137.373 159.343 134.446 159.831 131.045 159.831ZM130.412 119.449C126.932 119.449 123.992 120.794 121.592 123.483C119.219 126.146 117.835 129.495 117.439 133.529L117.519 133.727H142.594V132.541C142.594 128.823 141.5 125.711 139.311 123.207C137.123 120.702 134.156 119.449 130.412 119.449ZM185.309 159C184.992 157.55 184.768 156.297 184.636 155.243C184.504 154.188 184.438 153.12 184.438 152.039C182.856 154.28 180.747 156.139 178.11 157.616C175.474 159.092 172.507 159.831 169.211 159.831C165.019 159.831 161.776 158.75 159.482 156.587C157.188 154.425 156.041 151.499 156.041 147.807C156.041 143.852 157.742 140.714 161.143 138.394C164.544 136.074 169.159 134.914 174.986 134.914H184.438V129.258C184.438 126.199 183.45 123.8 181.472 122.06C179.521 120.319 176.779 119.449 173.246 119.449C170.873 119.449 168.697 119.779 166.72 120.438C164.769 121.071 163.134 121.941 161.815 123.048L161.42 128.783H157.504L157.544 120.557C159.521 119.027 161.881 117.788 164.624 116.839C167.392 115.89 170.332 115.415 173.443 115.415C178.163 115.415 181.96 116.615 184.834 119.014C187.708 121.414 189.145 124.854 189.145 129.337V150.378C189.145 151.248 189.158 152.092 189.185 152.909C189.237 153.7 189.33 154.478 189.461 155.243L193.733 155.52V159H185.309ZM169.726 155.638C173.153 155.638 176.172 154.847 178.783 153.265C181.393 151.683 183.278 149.64 184.438 147.135V138.552H174.907C170.609 138.552 167.168 139.449 164.584 141.242C162.026 143.008 160.748 145.25 160.748 147.965C160.748 150.259 161.539 152.118 163.121 153.542C164.729 154.939 166.931 155.638 169.726 155.638ZM230.199 152.83C228.775 155.071 226.942 156.798 224.701 158.011C222.46 159.224 219.823 159.831 216.791 159.831C211.676 159.831 207.668 157.919 204.768 154.096C201.894 150.272 200.457 145.17 200.457 138.79V137.959C200.457 131.13 201.894 125.672 204.768 121.585C207.668 117.472 211.702 115.415 216.87 115.415C219.85 115.415 222.434 116.048 224.622 117.313C226.811 118.553 228.63 120.333 230.08 122.653V101.335L223.633 100.821V97.3008H230.08H234.826V155.005L241.273 155.52V159H230.594L230.199 152.83ZM205.242 138.79C205.242 143.958 206.271 148.071 208.327 151.129C210.41 154.188 213.535 155.717 217.701 155.717C220.733 155.717 223.264 155.032 225.294 153.661C227.351 152.29 228.946 150.404 230.08 148.005V127.755C229.025 125.329 227.496 123.352 225.492 121.822C223.515 120.293 220.944 119.528 217.78 119.528C213.614 119.528 210.476 121.242 208.367 124.67C206.284 128.071 205.242 132.501 205.242 137.959V138.79Z" fill="white"/>
<path d="M62.0762 180.341L62.0649 183.294C62.0649 184.53 62.1286 185.275 62.2559 185.529C62.3831 185.776 62.5329 185.926 62.7051 185.979C62.8773 186.023 63.0981 186.046 63.3677 186.046C63.6372 186.046 63.8805 186.027 64.0977 185.99C64.3223 185.945 64.5319 185.889 64.7266 185.821C64.9212 185.754 65.1084 185.679 65.2881 185.597L65.8384 185.361C65.9657 185.316 66.1079 185.447 66.2651 185.754C66.3101 185.836 66.3325 185.934 66.3325 186.046C66.3325 186.151 66.2876 186.289 66.1978 186.461C66.1079 186.634 65.932 186.832 65.6699 187.057C65.4154 187.274 65.1159 187.468 64.7715 187.641C64.0228 188.022 63.349 188.213 62.75 188.213C62.1585 188.213 61.6756 188.18 61.3013 188.112C60.9269 188.045 60.6087 187.91 60.3467 187.708C59.8076 187.289 59.5381 186.521 59.5381 185.406V176.567H58.4263C58.1942 176.567 58.0257 176.493 57.9209 176.343C57.7412 176.111 57.6514 175.916 57.6514 175.759C57.6514 175.497 57.715 175.351 57.8423 175.321C59.0327 175.119 59.875 174.235 60.3691 172.67C60.5114 172.199 60.6237 171.641 60.7061 170.997C61.0654 170.937 61.335 170.907 61.5146 170.907C61.7018 170.907 61.8628 171.001 61.9976 171.188C62.1323 171.375 62.196 171.592 62.1885 171.839C62.1885 172.086 62.1847 172.319 62.1772 172.536C62.1698 172.753 62.1623 172.989 62.1548 173.243L62.1099 174.815H65.9956C66.0929 174.988 66.1416 175.171 66.1416 175.366V175.714C66.1416 176.028 65.9731 176.287 65.6362 176.489C65.2993 176.683 64.925 176.781 64.5132 176.781C64.1089 176.781 63.8169 176.777 63.6372 176.77C63.465 176.755 63.2965 176.74 63.1318 176.725L62.6377 176.657C62.4655 176.642 62.2821 176.627 62.0874 176.612V176.736L62.0762 180.341ZM74.2837 188.056C74.134 188.019 73.8944 188 73.5649 188H69.9824C69.2637 188 68.8032 187.873 68.6011 187.618C68.5187 187.521 68.4775 187.409 68.4775 187.281C68.4775 186.967 68.5374 186.735 68.6572 186.585C68.8369 186.645 69.0428 186.675 69.2749 186.675C69.507 186.675 69.6792 186.581 69.7915 186.394C69.9038 186.207 69.9562 185.859 69.9487 185.35V171.435C69.9487 170.918 69.8963 170.585 69.7915 170.436C69.6343 170.196 69.3573 170.076 68.9604 170.076H68.7358C68.6685 170.076 68.5898 170.087 68.5 170.11C68.4176 170.125 68.3465 170.117 68.2866 170.087C68.2267 170.05 68.1743 170.001 68.1294 169.941C67.9722 169.709 68.1519 169.395 68.6685 168.998C69.4246 168.422 70.1958 168.133 70.9819 168.133C71.8354 168.133 72.3146 168.594 72.4194 169.515C72.4494 169.792 72.4644 170.084 72.4644 170.391V176.511C73.5949 175.56 74.804 174.898 76.0918 174.523C76.5635 174.381 77.0389 174.31 77.5181 174.31C78.0047 174.31 78.4652 174.374 78.8994 174.501C79.3411 174.628 79.7192 174.834 80.0337 175.119C80.7225 175.733 81.0669 176.668 81.0669 177.926V185.462C81.0669 186.083 81.2765 186.465 81.6958 186.607C81.8156 186.652 81.9578 186.69 82.1226 186.72C82.2873 186.75 82.4333 186.787 82.5605 186.832C82.6953 186.869 82.8001 186.914 82.875 186.967C83.0023 187.064 83.0659 187.221 83.0659 187.438C83.0659 187.708 83.0098 187.914 82.8975 188.056C82.7402 188.019 82.5007 188 82.1787 188H78.5962C77.8774 188 77.417 187.873 77.2148 187.618C77.1325 187.521 77.0913 187.409 77.0913 187.281C77.0913 186.959 77.1475 186.727 77.2598 186.585C77.4469 186.645 77.6491 186.675 77.8662 186.675C78.0833 186.675 78.248 186.596 78.3604 186.439C78.4801 186.282 78.5475 185.993 78.5625 185.574V178.724C78.5625 177.451 78.1844 176.74 77.4282 176.59C77.1961 176.545 76.9041 176.522 76.5522 176.522C76.2078 176.522 75.826 176.575 75.4067 176.68C74.995 176.785 74.6056 176.919 74.2388 177.084C73.5125 177.413 72.9211 177.806 72.4644 178.263V185.462C72.4644 186.083 72.674 186.465 73.0933 186.607C73.2131 186.652 73.3553 186.69 73.52 186.72C73.6847 186.75 73.8307 186.787 73.958 186.832C74.0928 186.869 74.1976 186.914 74.2725 186.967C74.3997 187.064 74.4634 187.221 74.4634 187.438C74.4634 187.701 74.4035 187.906 74.2837 188.056ZM84.6045 181.958C84.6045 181.052 84.6981 180.247 84.8853 179.543C85.0724 178.84 85.3232 178.211 85.6377 177.657C85.9596 177.095 86.334 176.605 86.7607 176.186C87.195 175.766 87.6592 175.418 88.1533 175.141C89.1266 174.587 90.085 174.31 91.0283 174.31C91.9717 174.31 92.7279 174.479 93.2969 174.815C93.8659 175.145 94.3301 175.587 94.6895 176.141C95.3558 177.196 95.689 178.6 95.689 180.352C95.689 181.003 95.4157 181.337 94.8691 181.352L87.0303 181.52C87.0752 183.145 87.4945 184.346 88.2881 185.125C88.9619 185.784 89.8341 186.113 90.9048 186.113C92.4995 186.113 93.7948 185.78 94.7905 185.114C94.8579 185.114 94.9403 185.17 95.0376 185.282C95.2248 185.507 95.3184 185.701 95.3184 185.866C95.3184 186.226 94.8691 186.686 93.9707 187.248C92.9375 187.891 91.7321 188.213 90.3545 188.213C88.5576 188.213 87.1463 187.641 86.1206 186.495C85.1099 185.372 84.6045 183.86 84.6045 181.958ZM87.0977 180.071C89.2539 179.966 91.2267 179.828 93.0161 179.656C93.0985 177.275 92.2749 176.084 90.5454 176.084C89.5796 176.084 88.7897 176.459 88.1758 177.208C87.6143 177.896 87.2549 178.851 87.0977 180.071Z" fill="#CFCFCF"/>
<g fill="white">
  <path d="M140,179.52a8.94,8.94,0,0,1-4.67,7.86,8.84,8.84,0,0,1-3.1,1v.23a13.15,13.15,0,0,1,7.13,3.86,10.18,10.18,0,0,1,2.61,7.11,11.13,11.13,0,0,1-1.71,6,11,11,0,0,1-4.32,4.06,11.87,11.87,0,0,1-1.77.7,18.45,18.45,0,0,1-2.23.49c-.85.13-1.82.23-2.9.29s-2.34.09-3.77.09H106.21v-3.37l4.88-1.22V174.07l-4.88-1.22v-3.36h21.23q6.09,0,9.4,2.95a10.06,10.06,0,0,1,2.35,3.25A9.22,9.22,0,0,1,140,179.52Zm-21.4,7.83h5.51q4,0,6-2a7.48,7.48,0,0,0,1.51-2.06,6.76,6.76,0,0,0,0-5.74,7.48,7.48,0,0,0-1.51-2.06q-1.74-1.74-5.74-1.74h-5.74Zm0,4.23V206.9h4.64a25.78,25.78,0,0,0,4.29-.29,8.74,8.74,0,0,0,2.73-.93,6.22,6.22,0,0,0,2.55-2.58,8.36,8.36,0,0,0,1-4.09,7.16,7.16,0,0,0-.75-3.43,7.5,7.5,0,0,0-1.92-2.32,7.38,7.38,0,0,0-2.66-1.24,16.61,16.61,0,0,0-4.18-.44Z"/>
  <path d="M146.06,183.17v-3.25h11.83v27l4.47,1.1v3.25h-16.3V208l4.47-1.1V184.28Zm3.83-12.06a4.17,4.17,0,0,1,1.13-3,4.22,4.22,0,0,1,3.16-1.16,4.32,4.32,0,0,1,3.19,1.16,4.11,4.11,0,0,1,1.16,3,4.07,4.07,0,0,1-1.13,3,4.39,4.39,0,0,1-3.22,1.13A4.27,4.27,0,0,1,151,174.1,4.13,4.13,0,0,1,149.89,171.11Z"/>
  <path d="M169.72,184.28l-4.46-1.11v-3.25h10.09l1.28,5.81h.23a12.75,12.75,0,0,1,4.67-4.67,12.35,12.35,0,0,1,6.35-1.72,10.31,10.31,0,0,1,4.17.82,7,7,0,0,1,3,2.32,11.15,11.15,0,0,1,1.66,4.55,51.1,51.1,0,0,1,.49,7.92v12l4.46,1.1v3.25H185.91V208l3.88-1.1V195.7c0-2.32-.07-4.13-.2-5.42a10.46,10.46,0,0,0-.73-3.11,3.91,3.91,0,0,0-1.74-2.08,5.47,5.47,0,0,0-2.61-.58,6.78,6.78,0,0,0-4.81,1.85q-2.38,2.2-2.61,6.79V206.9L181,208v3.25H165.26V208l4.46-1.1Z"/>
</g>
</g>
<defs>
<clipPath id="clip0">
<rect width="300" height="300" fill="white"/>
</clipPath>
</defs>
</svg>